<svg xmlns="http://www.w3.org/2000/svg" style="display:none">

  <!-- ===== Buddy animals (login / avatar pill) ===== -->
  <symbol id="buddy-fox" viewBox="0 0 48 48">
    <circle cx="24" cy="27" r="15" fill="#FFD9C7"/>
    <path d="M9 19 L16 6 L20 20 Z" fill="#FF8A65"/>
    <path d="M39 19 L32 6 L28 20 Z" fill="#FF8A65"/>
    <path d="M11 19 L16.5 9 L18.5 20 Z" fill="#FFF1EA"/>
    <path d="M37 19 L31.5 9 L29.5 20 Z" fill="#FFF1EA"/>
    <ellipse cx="24" cy="32" rx="8" ry="6.5" fill="#FFF6EE"/>
    <circle cx="19.5" cy="25" r="2.3" fill="#25393A"/>
    <circle cx="28.5" cy="25" r="2.3" fill="#25393A"/>
    <path d="M24 30 L21.5 33.5 L26.5 33.5 Z" fill="#F26B45"/>
  </symbol>

  <symbol id="buddy-owl" viewBox="0 0 48 48">
    <ellipse cx="24" cy="27" rx="14" ry="15" fill="#3FB3A2"/>
    <path d="M14 13 L19 19 L12 20 Z" fill="#2F9C8D"/>
    <path d="M34 13 L29 19 L36 20 Z" fill="#2F9C8D"/>
    <circle cx="18" cy="25" r="6.5" fill="#FFFFFF"/>
    <circle cx="30" cy="25" r="6.5" fill="#FFFFFF"/>
    <circle cx="18" cy="25" r="3" fill="#25393A"/>
    <circle cx="30" cy="25" r="3" fill="#25393A"/>
    <path d="M24 30 L21.5 34 L26.5 34 Z" fill="#F4B740"/>
  </symbol>

  <symbol id="buddy-turtle" viewBox="0 0 48 48">
    <ellipse cx="24" cy="29" rx="15" ry="11" fill="#7BD389"/>
    <path d="M24 19 L31 24 L28 32 L20 32 L17 24 Z" fill="#56B768" stroke="#3F9A50" stroke-width="1"/>
    <circle cx="11" cy="22" r="6" fill="#7BD389"/>
    <circle cx="9.5" cy="20.5" r="1.6" fill="#25393A"/>
    <ellipse cx="17" cy="38" rx="3.5" ry="2.5" fill="#56B768"/>
    <ellipse cx="31" cy="38" rx="3.5" ry="2.5" fill="#56B768"/>
  </symbol>

  <symbol id="buddy-bee" viewBox="0 0 48 48">
    <ellipse cx="20" cy="14" rx="8" ry="6" fill="#FFFFFF" opacity="0.7"/>
    <ellipse cx="28" cy="14" rx="8" ry="6" fill="#FFFFFF" opacity="0.7"/>
    <ellipse cx="24" cy="28" rx="13" ry="11" fill="#F4B740"/>
    <path d="M13 21 a13 11 0 0 1 22 0 Z" fill="#25393A"/>
    <rect x="11" y="29" width="26" height="5" fill="#25393A"/>
    <path d="M19 13 L16 6 M29 13 L32 6" stroke="#25393A" stroke-width="2" fill="none" stroke-linecap="round"/>
  </symbol>

  <!-- ===== Mood faces (reused everywhere EXCEPT the live check-in grid) ===== -->
  <symbol id="mood-happy" viewBox="0 0 48 48">
    <circle cx="24" cy="24" r="19" fill="#F4B740"/>
    <circle cx="17" cy="21" r="2.4" fill="#25393A"/>
    <circle cx="31" cy="21" r="2.4" fill="#25393A"/>
    <path d="M15 28 Q24 36 33 28" stroke="#25393A" stroke-width="2.6" fill="none" stroke-linecap="round"/>
  </symbol>
  <symbol id="mood-silly" viewBox="0 0 48 48">
    <circle cx="24" cy="24" r="19" fill="#F4B740"/>
    <path d="M13 21 Q17 17 21 21" stroke="#25393A" stroke-width="2.4" fill="none" stroke-linecap="round"/>
    <path d="M27 21 Q31 17 35 21" stroke="#25393A" stroke-width="2.4" fill="none" stroke-linecap="round"/>
    <path d="M14 27 Q24 39 34 27 Q24 33 14 27 Z" fill="#25393A"/>
    <path d="M21 33 Q24 36 27 33" stroke="#FF8A65" stroke-width="2" fill="none" stroke-linecap="round"/>
  </symbol>
  <symbol id="mood-tired" viewBox="0 0 48 48">
    <circle cx="24" cy="24" r="19" fill="#CDE7E2"/>
    <path d="M13 22 Q17 25 21 22" stroke="#25393A" stroke-width="2.4" fill="none" stroke-linecap="round"/>
    <path d="M27 22 Q31 25 35 22" stroke="#25393A" stroke-width="2.4" fill="none" stroke-linecap="round"/>
    <path d="M17 31 Q24 27 31 31" stroke="#25393A" stroke-width="2.4" fill="none" stroke-linecap="round"/>
    <path d="M35 12 L38 9 M38 12 L41 9" stroke="#6B807E" stroke-width="2" stroke-linecap="round"/>
  </symbol>
  <symbol id="mood-angry" viewBox="0 0 48 48">
    <circle cx="24" cy="24" r="19" fill="#FFC9BC"/>
    <path d="M14 18 L21 22" stroke="#25393A" stroke-width="2.6" stroke-linecap="round"/>
    <path d="M34 18 L27 22" stroke="#25393A" stroke-width="2.6" stroke-linecap="round"/>
    <circle cx="18.5" cy="25" r="2.2" fill="#25393A"/>
    <circle cx="29.5" cy="25" r="2.2" fill="#25393A"/>
    <path d="M16 34 Q24 28 32 34" stroke="#25393A" stroke-width="2.6" fill="none" stroke-linecap="round"/>
  </symbol>
  <symbol id="mood-sad" viewBox="0 0 48 48">
    <circle cx="24" cy="24" r="19" fill="#BFE0F0"/>
    <circle cx="17" cy="22" r="2.3" fill="#25393A"/>
    <circle cx="31" cy="22" r="2.3" fill="#25393A"/>
    <path d="M15 34 Q24 27 33 34" stroke="#25393A" stroke-width="2.6" fill="none" stroke-linecap="round"/>
    <path d="M31 26 Q33 30 31 33" stroke="#5FA8D6" stroke-width="2.4" fill="none" stroke-linecap="round"/>
  </symbol>
  <symbol id="mood-worried" viewBox="0 0 48 48">
    <circle cx="24" cy="24" r="19" fill="#F7DFA8"/>
    <path d="M14 19 Q17.5 16 21 19" stroke="#25393A" stroke-width="2.4" fill="none" stroke-linecap="round"/>
    <path d="M27 19 Q30.5 16 34 19" stroke="#25393A" stroke-width="2.4" fill="none" stroke-linecap="round"/>
    <circle cx="17.5" cy="24" r="2.2" fill="#25393A"/>
    <circle cx="30.5" cy="24" r="2.2" fill="#25393A"/>
    <path d="M18 33 Q24 30 30 33" stroke="#25393A" stroke-width="2.4" fill="none" stroke-linecap="round"/>
    <ellipse cx="35" cy="14" rx="1.8" ry="2.6" fill="#9FCBEA"/>
  </symbol>

  <!-- ===== Garden growth stages ===== -->
  <symbol id="growth-seed" viewBox="0 0 48 48">
    <path d="M24 40 V28" stroke="#2F9C8D" stroke-width="3" stroke-linecap="round"/>
    <path d="M24 28 Q14 28 16 18 Q26 18 24 28 Z" fill="#7BD389"/>
  </symbol>
  <symbol id="growth-sprout" viewBox="0 0 48 48">
    <path d="M24 40 V22" stroke="#2F9C8D" stroke-width="3" stroke-linecap="round"/>
    <path d="M24 26 Q12 24 14 12 Q27 14 24 26 Z" fill="#56B768"/>
    <path d="M24 30 Q36 28 34 18 Q22 19 24 30 Z" fill="#7BD389"/>
  </symbol>
  <symbol id="growth-bud" viewBox="0 0 48 48">
    <path d="M24 40 V20" stroke="#2F9C8D" stroke-width="3" stroke-linecap="round"/>
    <path d="M24 24 Q13 22 15 11 Q27 13 24 24 Z" fill="#56B768"/>
    <ellipse cx="24" cy="13" rx="6.5" ry="8" fill="#FF8A65"/>
  </symbol>
  <symbol id="growth-bloom" viewBox="0 0 48 48">
    <path d="M24 40 V22" stroke="#2F9C8D" stroke-width="3" stroke-linecap="round"/>
    <path d="M24 26 Q13 24 15 14 Q27 16 24 26 Z" fill="#56B768"/>
    <g fill="#F4B740">
      <circle cx="24" cy="8" r="5"/>
      <circle cx="15" cy="13" r="5"/>
      <circle cx="33" cy="13" r="5"/>
      <circle cx="17" cy="22" r="5"/>
      <circle cx="31" cy="22" r="5"/>
    </g>
    <circle cx="24" cy="15" r="5.5" fill="#F26B45"/>
  </symbol>

  <!-- ===== Stat / decorative icons ===== -->
  <symbol id="icon-leaf" viewBox="0 0 24 24">
    <path d="M20 4C12 4 4 9 4 17c0 1.5 1 3 3 3 8 0 13-8 13-16z" fill="currentColor"/>
    <path d="M7 19c3-3 6-7 11-13" stroke="#fff" stroke-width="1.3" fill="none" stroke-linecap="round" opacity="0.5"/>
  </symbol>
  <symbol id="icon-flame" viewBox="0 0 24 24">
    <path d="M12 2c2 4-3 5-3 9a3 3 0 006 0c0-1-1-2-1-3 2 1 4 4 4 7a6 6 0 01-12 0c0-5 3-7 6-13z" fill="currentColor"/>
  </symbol>
  <symbol id="icon-blossom" viewBox="0 0 24 24">
    <g fill="currentColor">
      <circle cx="12" cy="6" r="4.2"/>
      <circle cx="6" cy="10" r="4.2"/>
      <circle cx="18" cy="10" r="4.2"/>
      <circle cx="8" cy="17" r="4.2"/>
      <circle cx="16" cy="17" r="4.2"/>
    </g>
    <circle cx="12" cy="12" r="3.4" fill="#F26B45"/>
  </symbol>

  <!-- ===== Unwind menu icons ===== -->
  <symbol id="icon-pencil" viewBox="0 0 24 24">
    <path d="M4 20l1-4.5L15.5 5 19 8.5 8.5 19 4 20z" fill="currentColor"/>
    <path d="M13.5 6.5L17 10" stroke="#fff" stroke-width="1.2" opacity="0.5"/>
  </symbol>
  <symbol id="icon-palette" viewBox="0 0 24 24">
    <path d="M12 3a9 9 0 100 18c1.4 0 2-1 2-2 0-.7-.4-1.2-.4-1.9 0-1.2 1-2.1 2.2-2.1H17a4 4 0 004-4c0-4.4-4-8-9-8z" fill="currentColor"/>
    <circle cx="7.5" cy="11" r="1.4" fill="#fff"/>
    <circle cx="9.5" cy="7" r="1.4" fill="#fff"/>
    <circle cx="14.5" cy="6.5" r="1.4" fill="#fff"/>
  </symbol>
  <symbol id="icon-gamepad" viewBox="0 0 24 24">
    <rect x="2" y="8" width="20" height="10" rx="5" fill="currentColor"/>
    <rect x="6" y="11.2" width="3.2" height="1.6" rx="0.8" fill="#fff"/>
    <rect x="6.8" y="9.6" width="1.6" height="4.8" rx="0.8" fill="#fff"/>
    <circle cx="16" cy="11" r="1.2" fill="#fff"/>
    <circle cx="19" cy="14" r="1.2" fill="#fff"/>
  </symbol>
  <symbol id="icon-clover" viewBox="0 0 24 24">
    <g fill="currentColor">
      <circle cx="9" cy="9" r="4.2"/>
      <circle cx="15" cy="9" r="4.2"/>
      <circle cx="9" cy="15" r="4.2"/>
      <circle cx="15" cy="15" r="4.2"/>
    </g>
    <path d="M12 14v7" stroke="currentColor" stroke-width="2" stroke-linecap="round"/>
  </symbol>
  <symbol id="icon-thought" viewBox="0 0 24 24">
    <ellipse cx="12" cy="10" rx="9" ry="6.5" fill="currentColor"/>
    <circle cx="6" cy="18" r="1.6" fill="currentColor"/>
    <circle cx="3.2" cy="20.5" r="1" fill="currentColor"/>
  </symbol>

  <!-- ===== Drawing tools ===== -->
  <symbol id="icon-shape-line" viewBox="0 0 24 24">
    <line x1="4" y1="20" x2="20" y2="4" stroke="currentColor" stroke-width="2.6" stroke-linecap="round"/>
  </symbol>
  <symbol id="icon-shape-rect" viewBox="0 0 24 24">
    <rect x="4" y="6" width="16" height="12" rx="2" fill="none" stroke="currentColor" stroke-width="2.4"/>
  </symbol>
  <symbol id="icon-shape-circle" viewBox="0 0 24 24">
    <circle cx="12" cy="12" r="8" fill="none" stroke="currentColor" stroke-width="2.4"/>
  </symbol>
  <symbol id="icon-eraser" viewBox="0 0 24 24">
    <rect x="3" y="13" width="13" height="7" rx="1.5" fill="currentColor" transform="rotate(-15 9.5 16.5)"/>
    <path d="M8 13L16 5a2 2 0 013 0l2 2a2 2 0 010 3l-8 8" fill="currentColor" opacity="0.55"/>
  </symbol>
  <symbol id="icon-trash" viewBox="0 0 24 24">
    <path d="M5 7h14l-1.2 13.5a2 2 0 01-2 1.8H8.2a2 2 0 01-2-1.8L5 7z" fill="currentColor"/>
    <path d="M3 7h18M9 4h6a1 1 0 011 1v2H8V5a1 1 0 011-1z" fill="currentColor"/>
  </symbol>
  <symbol id="icon-download" viewBox="0 0 24 24">
    <path d="M12 3v11" stroke="currentColor" stroke-width="2.4" stroke-linecap="round"/>
    <path d="M7 10l5 5 5-5" stroke="currentColor" stroke-width="2.4" fill="none" stroke-linecap="round" stroke-linejoin="round"/>
    <path d="M4 19h16" stroke="currentColor" stroke-width="2.4" stroke-linecap="round"/>
  </symbol>

  <!-- ===== Game tab icons ===== -->
  <symbol id="icon-breath" viewBox="0 0 24 24">
    <circle cx="12" cy="12" r="9" fill="currentColor" opacity="0.25"/>
    <circle cx="12" cy="12" r="5.5" fill="currentColor"/>
  </symbol>
  <symbol id="icon-cards" viewBox="0 0 24 24">
    <rect x="3" y="6" width="12" height="15" rx="2" fill="currentColor" opacity="0.55" transform="rotate(-8 9 13)"/>
    <rect x="8" y="4" width="12" height="15" rx="2" fill="currentColor"/>
  </symbol>
  <symbol id="icon-hand" viewBox="0 0 24 24">
    <path d="M7 22v-9.5a1.5 1.5 0 013 0V11a1.5 1.5 0 013 0v1.2a1.5 1.5 0 013 0V13a1.5 1.5 0 013 0v6c0 1.7-1.3 3-3 3H10c-1.5 0-3-1.6-3-3z" fill="currentColor"/>
    <rect x="7" y="6" width="3" height="8" rx="1.5" fill="currentColor"/>
  </symbol>

  <!-- ===== Mapping icons ===== -->
  <symbol id="icon-target" viewBox="0 0 24 24">
    <circle cx="12" cy="12" r="9" fill="currentColor" opacity="0.25"/>
    <circle cx="12" cy="12" r="5.5" fill="currentColor" opacity="0.55"/>
    <circle cx="12" cy="12" r="2.2" fill="currentColor"/>
  </symbol>
  <symbol id="icon-footprint" viewBox="0 0 24 24">
    <ellipse cx="12" cy="15" rx="4.5" ry="6.5" fill="currentColor"/>
    <circle cx="8" cy="6" r="1.6" fill="currentColor"/>
    <circle cx="11.5" cy="4.5" r="1.7" fill="currentColor"/>
    <circle cx="15" cy="5" r="1.5" fill="currentColor"/>
    <circle cx="17.5" cy="7" r="1.2" fill="currentColor"/>
  </symbol>
  <symbol id="icon-grip" viewBox="0 0 24 24">
    <g fill="currentColor">
      <circle cx="9" cy="6" r="1.6"/><circle cx="15" cy="6" r="1.6"/>
      <circle cx="9" cy="12" r="1.6"/><circle cx="15" cy="12" r="1.6"/>
      <circle cx="9" cy="18" r="1.6"/><circle cx="15" cy="18" r="1.6"/>
    </g>
  </symbol>

  <!-- ===== Admin / account icons ===== -->
  <symbol id="icon-person" viewBox="0 0 24 24">
    <circle cx="12" cy="8" r="4" fill="currentColor"/>
    <path d="M4 21c0-4.4 3.6-7 8-7s8 2.6 8 7" fill="currentColor"/>
  </symbol>
  <symbol id="icon-cap" viewBox="0 0 24 24">
    <path d="M12 4L2 9l10 4 10-4-10-5z" fill="currentColor"/>
    <path d="M6 11.5V16c0 1.5 2.7 3 6 3s6-1.5 6-3v-4.5" fill="none" stroke="currentColor" stroke-width="1.6"/>
    <path d="M21 9v5" stroke="currentColor" stroke-width="1.6" stroke-linecap="round"/>
  </symbol>
  <symbol id="icon-flag" viewBox="0 0 24 24">
    <path d="M6 3v18" stroke="currentColor" stroke-width="2.2" stroke-linecap="round"/>
    <path d="M6 4h12l-3 4 3 4H6z" fill="currentColor"/>
  </symbol>
  <symbol id="icon-note" viewBox="0 0 24 24">
    <rect x="3" y="5" width="18" height="14" rx="2" fill="currentColor"/>
    <path d="M3 6l9 7 9-7" fill="none" stroke="#fff" stroke-width="1.4" opacity="0.6"/>
  </symbol>
  <symbol id="icon-warning" viewBox="0 0 24 24">
    <path d="M12 3l10 18H2L12 3z" fill="currentColor"/>
    <rect x="11" y="9" width="2" height="6" fill="#fff"/>
    <circle cx="12" cy="17.5" r="1.2" fill="#fff"/>
  </symbol>

</svg>
